<?xml version="1.0" standalone="no"?>
<!DOCTYPE svg PUBLIC "-//W3C//DTD SVG 20010904//EN"
 "http://www.w3.org/TR/2001/REC-SVG-20010904/DTD/svg10.dtd">
<svg version="1.0" xmlns="http://www.w3.org/2000/svg"
 width="720.000000pt" height="696.000000pt" viewBox="0 0 720.000000 696.000000"
 preserveAspectRatio="xMidYMid meet">

<g transform="translate(0.000000,696.000000) scale(0.100000,-0.100000)"
fill="#000000" stroke="none">
<path d="M3444 6096 c-168 -32 -278 -90 -394 -206 -129 -129 -190 -248 -219
-422 l-16 -97 -185 -3 c-181 -3 -186 -4 -231 -30 -43 -25 -109 -105 -109 -132
0 -6 -9 -67 -19 -136 -11 -69 -29 -197 -41 -285 -11 -88 -36 -272 -55 -410
-19 -137 -43 -320 -55 -405 -23 -177 -109 -822 -136 -1013 -17 -124 -17 -130
1 -183 21 -63 80 -124 141 -145 58 -21 2820 -21 2878 0 55 19 110 73 136 133
25 58 26 33 -15 343 -27 203 -68 520 -140 1075 -24 190 -56 433 -70 540 -14
107 -34 261 -45 342 -10 81 -24 157 -31 170 -26 49 -56 81 -99 106 -44 26 -51
27 -232 30 -209 4 -198 -1 -198 82 0 49 -35 171 -67 233 -77 154 -196 274
-338 342 -49 24 -118 51 -152 59 -88 23 -225 28 -309 12z m310 -190 c93 -32
175 -85 242 -158 85 -94 144 -230 144 -335 l0 -43 -572 2 -573 3 4 44 c9 131
66 248 170 352 159 159 370 207 585 135z m914 -677 c45 -16 57 -53 81 -254 12
-99 27 -207 32 -240 5 -33 23 -166 39 -295 30 -238 53 -417 70 -545 5 -38 32
-245 59 -460 28 -214 57 -437 65 -495 16 -114 8 -157 -32 -179 -15 -8 -437
-11 -1420 -11 -1387 0 -1400 0 -1425 20 -34 27 -40 60 -27 150 6 41 15 109 20
150 5 41 28 208 50 370 22 162 65 480 95 705 30 226 61 455 69 510 8 55 27
190 41 300 15 110 31 213 37 228 23 59 -34 56 1139 57 739 0 1086 -3 1107 -11z"/>
<path d="M3490 5062 c-19 -10 -89 -47 -155 -82 -66 -34 -160 -84 -210 -110
-126 -67 -287 -151 -445 -233 -74 -39 -143 -77 -152 -85 -23 -19 -23 -45 0
-64 9 -8 159 -88 332 -178 536 -277 624 -323 645 -337 41 -27 83 -16 234 66
371 199 699 371 710 371 8 0 11 -63 11 -219 0 -203 -1 -220 -20 -244 -25 -31
-26 -70 -3 -108 16 -27 16 -34 -5 -142 -29 -151 -29 -172 7 -208 41 -41 101
-41 142 0 19 19 29 40 29 59 0 27 -34 212 -46 253 -2 9 3 24 12 34 24 24 22
90 -5 119 -20 21 -21 31 -21 263 l0 242 29 20 c33 24 44 54 27 74 -6 8 -90 55
-186 104 -96 50 -249 129 -340 175 -537 278 -515 269 -590 230z"/>
<path d="M2720 3773 c0 -331 4 -511 11 -538 33 -119 119 -225 228 -278 l66
-32 501 0 500 0 75 37 c145 72 222 183 239 344 12 113 10 933 -1 940 -5 3 -21
-3 -37 -14 -15 -10 -115 -65 -222 -122 -107 -57 -261 -138 -341 -181 -143 -77
-198 -94 -224 -70 -6 5 -59 34 -120 66 -60 32 -146 77 -190 100 -44 23 -154
81 -245 128 -91 47 -178 93 -195 101 -16 9 -33 16 -37 16 -5 0 -8 -224 -8
-497z m1219 33 c6 -7 32 -71 57 -142 93 -262 184 -526 184 -535 0 -14 -137
-11 -146 3 -5 7 -16 40 -25 73 l-16 60 -119 0 -119 0 -23 -72 -24 -73 -69 0
c-78 0 -80 3 -55 75 8 22 59 166 112 320 53 154 102 286 107 293 13 17 121 16
136 -2z m-807 -233 c3 -256 7 -277 58 -315 41 -30 92 -34 143 -9 69 33 71 43
75 319 l3 243 67 -3 67 -3 0 -255 0 -255 -26 -50 c-43 -80 -114 -123 -218
-132 -130 -11 -232 42 -283 145 -21 44 -23 61 -26 285 -2 130 -2 244 2 252 4
11 22 15 70 15 l65 0 3 -237z"/>
<path d="M3860 3608 c0 -7 -14 -55 -30 -107 -17 -51 -30 -97 -30 -102 0 -5 32
-9 70 -9 48 0 70 4 70 12 0 25 -63 218 -72 218 -4 0 -8 -6 -8 -12z"/>
<path d="M2459 2282 c-52 -43 -14 -127 58 -125 63 2 95 68 57 121 -19 28 -82
30 -115 4z"/>
<path d="M1114 2276 c-3 -8 -4 -135 -2 -283 l3 -268 28 -47 c32 -56 103 -113
161 -130 23 -7 79 -13 126 -13 71 0 94 4 140 26 62 29 110 74 137 128 16 32
18 67 18 316 l0 280 -72 3 -73 3 -1 -223 c0 -123 -4 -245 -8 -271 -14 -87 -66
-130 -153 -128 -57 1 -101 21 -125 58 -16 24 -19 61 -23 293 l-5 265 -73 3
c-56 2 -74 0 -78 -12z"/>
<path d="M2716 2208 c-3 -46 -10 -180 -16 -298 -6 -118 -13 -250 -16 -293 l-5
-78 78 3 78 3 7 145 c15 285 20 352 28 343 4 -4 45 -95 91 -201 l84 -192 50 2
49 3 46 101 c25 55 54 120 64 145 11 24 31 69 45 99 l26 55 12 -190 c7 -104
15 -218 19 -252 l6 -63 68 0 c38 0 71 3 73 8 3 5 -37 704 -43 740 -1 6 -156 1
-166 -6 -6 -4 -36 -70 -68 -147 -31 -77 -72 -175 -89 -217 -18 -43 -36 -76
-41 -75 -4 2 -48 95 -96 207 -49 113 -93 213 -99 223 -9 14 -26 17 -95 17
l-84 0 -6 -82z"/>
<path d="M4545 2278 c-2 -7 -3 -175 -2 -373 l2 -360 75 0 75 0 3 78 c2 62 7
83 24 102 12 14 25 25 29 25 4 0 39 -47 79 -105 l71 -105 85 0 c46 0 84 4 84
8 0 5 -45 73 -100 152 -55 78 -100 148 -100 154 0 10 66 89 156 188 19 20 34
40 34 43 0 3 -40 5 -89 5 l-88 0 -59 -67 c-32 -36 -70 -81 -84 -99 -14 -18
-29 -33 -35 -34 -6 0 -10 72 -10 197 l0 198 -73 3 c-52 2 -74 -1 -77 -10z"/>
<path d="M5790 2237 l-55 -12 -3 -67 -3 -68 -45 0 -45 0 3 -62 3 -63 42 -3 41
-3 4 -172 c3 -194 7 -205 74 -237 41 -20 121 -26 183 -14 l32 7 -3 61 c-2 48
-6 60 -18 58 -57 -13 -78 -13 -93 2 -20 20 -29 96 -25 206 l3 85 60 5 60 5 3
62 3 62 -63 3 -63 3 -3 78 c-3 87 2 83 -92 64z"/>
<path d="M2102 2090 c-34 -8 -102 -50 -102 -62 0 -5 -4 -8 -9 -8 -6 0 -11 15
-13 33 l-3 32 -67 3 -68 3 0 -276 0 -275 70 0 70 0 0 184 0 184 31 30 c48 47
119 51 156 10 16 -17 19 -45 23 -212 l5 -191 66 -3 66 -3 7 47 c10 75 7 318
-5 373 -14 64 -61 114 -123 130 -50 12 -57 12 -104 1z"/>
<path d="M3723 2086 c-28 -7 -63 -20 -77 -30 -23 -14 -26 -23 -26 -71 0 -30 4
-55 10 -55 5 0 32 9 60 20 54 21 158 27 190 10 23 -13 44 -69 27 -75 -7 -2
-51 -6 -99 -8 -99 -5 -168 -32 -202 -80 -30 -40 -30 -154 0 -193 42 -57 69
-69 153 -69 68 0 83 3 119 28 l42 27 0 -25 c0 -24 2 -25 75 -25 l75 0 0 191
c0 116 -5 207 -12 230 -15 50 -54 94 -103 115 -52 21 -168 27 -232 10z m197
-356 c0 -42 -4 -52 -26 -67 -14 -9 -50 -18 -79 -21 -46 -4 -54 -2 -69 19 -30
44 -15 94 34 112 8 3 43 6 78 6 l62 1 0 -50z"/>
<path d="M4393 2081 c-23 -11 -46 -29 -53 -40 -16 -32 -30 -25 -30 14 l0 35
-70 0 -70 0 0 -275 0 -275 75 0 75 0 0 156 c0 124 3 163 16 190 20 42 59 64
114 64 l41 0 -3 73 c-3 69 -4 72 -28 75 -14 1 -44 -7 -67 -17z"/>
<path d="M5258 2087 c-89 -25 -165 -98 -188 -178 -6 -19 -10 -65 -10 -104 0
-89 29 -155 94 -212 57 -50 119 -67 220 -61 76 5 181 44 192 71 3 8 -4 35 -16
60 l-22 46 -36 -24 c-79 -52 -193 -53 -239 -3 -26 30 -46 68 -39 76 4 3 93 6
199 6 l192 1 -1 75 c0 50 -6 86 -17 107 -27 51 -76 102 -119 124 -50 25 -149
33 -210 16z m124 -117 c39 -16 58 -36 64 -69 l7 -31 -116 0 c-64 0 -118 4
-121 8 -9 14 32 66 66 85 37 19 66 22 100 7z"/>
<path d="M2445 2077 c-3 -7 -4 -129 -3 -272 l3 -260 68 -3 67 -3 0 276 0 275
-65 0 c-44 0 -67 -4 -70 -13z"/>
</g>
</svg>
